<svg width="69" height="81" xmlns="http://www.w3.org/2000/svg" xmlns:xlink="http://www.w3.org/1999/xlink"><defs><path d="M32.5 65.217c22.51 0 32.5-10.022 32.5-32.608S55.01 0 32.5 0C9.99 0 0 10.023 0 32.609c0 22.586 9.99 32.608 32.5 32.608z" id="a"/><filter x="-13%" y="-13%" width="126%" height="125.9%" filterUnits="objectBoundingBox" id="b"><feOffset dx="7" dy="7" in="SourceAlpha" result="shadowOffsetInner1"/><feComposite in="shadowOffsetInner1" in2="SourceAlpha" operator="arithmetic" k2="-1" k3="1" result="shadowInnerInner1"/><feColorMatrix values="0 0 0 0 1 0 0 0 0 1 0 0 0 0 1 0 0 0 1 0" in="shadowInnerInner1" result="shadowMatrixInner1"/><feOffset dx="-13" dy="-3" in="SourceAlpha" result="shadowOffsetInner2"/><feComposite in="shadowOffsetInner2" in2="SourceAlpha" operator="arithmetic" k2="-1" k3="1" result="shadowInnerInner2"/><feColorMatrix values="0 0 0 0 0 0 0 0 0 0 0 0 0 0 0 0 0 0 0.05 0" in="shadowInnerInner2" result="shadowMatrixInner2"/><feMerge><feMergeNode in="shadowMatrixInner1"/><feMergeNode in="shadowMatrixInner2"/></feMerge></filter><path d="M15.6 5.231c11.754 0 15.6 7.807 15.6 1.327S20.785 0 15.6 0C10.415 0 0 .078 0 6.558c0 6.48 3.846-1.327 15.6-1.327z" id="c"/><path d="M9.1 26.86c.81.402 1.3.93 1.3 1.51 0 1.26-2.328 2.282-5.2 2.282-2.872 0-5.2-1.022-5.2-2.282 0-1.261 2.328-2.283 5.2-2.283V3.9A3.9 3.9 0 0 1 9.1 0v26.86z" id="d"/><path d="M12.957 28.381c1.203.352 1.993.946 1.993 1.619 0 1.08-2.037 1.957-4.55 1.957S5.85 31.08 5.85 30c0-.887 1.372-1.636 3.252-1.876a1.32 1.32 0 0 1-.002-.076V0H13v28.048c0 .115-.015.227-.043.333z" id="e"/><path d="M24.7 25.623c1.537.314 2.6.988 2.6 1.768 0 1.08-2.037 1.957-4.55 1.957s-4.55-.876-4.55-1.957c0-.78 1.063-1.454 2.6-1.768V0h3.9v25.623z" id="f"/><path d="M20.8 28.232c1.537.314 2.6.988 2.6 1.768 0 1.08-2.037 1.957-4.55 1.957S14.3 31.08 14.3 30c0-.78 1.063-1.454 2.6-1.768V0h3.9v28.232z" id="g"/><path d="M16.9 29.536c1.537.314 2.6.988 2.6 1.768 0 1.08-2.037 1.957-4.55 1.957s-4.55-.876-4.55-1.957c0-.78 1.063-1.454 2.6-1.768V0h3.9v29.536z" id="h"/><path d="M32.5 25.452c2.565.14 4.55 1.101 4.55 2.265 0 1.261-2.328 2.283-5.2 2.283-2.872 0-5.2-1.022-5.2-2.283 0-.72.761-1.363 1.95-1.782V0a3.9 3.9 0 0 1 3.9 3.9v21.552z" id="i"/><path d="M28.6 28.807c1.893.269 3.25.993 3.25 1.845 0 1.08-2.183 1.957-4.875 1.957s-4.875-.876-4.875-1.957c0-.75 1.054-1.403 2.6-1.73V0h3.9v28.807z" id="j"/></defs><g transform="translate(2 2)" fill="none" fill-rule="evenodd"><path d="M32.5 74.348c22.51 0 32.5-3.107 32.5-10.109S55.01 54.13 32.5 54.13C9.99 54.13 0 57.237 0 64.24c0 7 9.99 10.108 32.5 10.108z" fill-opacity=".05" fill="#000"/><use fill="#C5E4A0" xlink:href="#a"/><use fill="#000" filter="url(#b)" xlink:href="#a"/><use stroke="#494E61" stroke-width="3.9" xlink:href="#a"/><path d="M53.3 18.26c-6.5-6.775-14.193 6.523-14.3-.651m-13 0c-.107 7.174-7.8-6.124-14.3.652" stroke="#494E61" stroke-linecap="round" stroke-width="3.9"/><ellipse fill="#494E61" cx="19.5" cy="29.348" rx="3.9" ry="3.913"/><ellipse fill="#494E61" cx="45.5" cy="29.348" rx="3.9" ry="3.913"/><use stroke="#494E61" stroke-width="7.02" fill="#494E61" xlink:href="#c" transform="translate(16.9 37.826)"/><g transform="translate(13.65 41.74)"><use fill="#494E61" xlink:href="#d"/><path stroke="#494E61" stroke-width="3.9" d="M11.05 25.803c.806.662 1.3 1.52 1.3 2.567 0 2.776-3.317 4.232-7.15 4.232s-7.15-1.456-7.15-4.232c0-2.291 2.258-3.683 5.2-4.1V3.9A5.85 5.85 0 0 1 9.1-1.95h1.95v27.753z"/></g><g transform="translate(13.65 41.74)"><use fill="#494E61" xlink:href="#e"/><path stroke="#494E61" stroke-width="3.9" d="M14.95 27.091c1.187.645 1.95 1.6 1.95 2.909 0 2.607-3.021 3.907-6.5 3.907S3.9 32.607 3.9 30c0-1.744 1.331-2.876 3.25-3.456V-1.95h7.8v29.041z"/></g><g transform="translate(13.65 41.74)"><use fill="#494E61" xlink:href="#f"/><path stroke="#494E61" stroke-width="3.9" d="M26.65 24.17c1.56.628 2.6 1.682 2.6 3.221 0 2.608-3.021 3.907-6.5 3.907s-6.5-1.3-6.5-3.907c0-1.539 1.04-2.593 2.6-3.22V-1.95h7.8v26.12z"/></g><g transform="translate(13.65 41.74)"><use fill="#494E61" xlink:href="#g"/><path stroke="#494E61" stroke-width="3.9" d="M22.75 26.78c1.56.627 2.6 1.68 2.6 3.22 0 2.607-3.021 3.907-6.5 3.907s-6.5-1.3-6.5-3.907c0-1.54 1.04-2.593 2.6-3.22V-1.95h7.8v28.73z"/></g><g transform="translate(13.65 41.74)"><use fill="#494E61" xlink:href="#h"/><path stroke="#494E61" stroke-width="3.9" d="M18.85 28.084c1.56.627 2.6 1.681 2.6 3.22 0 2.608-3.021 3.907-6.5 3.907s-6.5-1.3-6.5-3.907c0-1.539 1.04-2.593 2.6-3.22V-1.95h7.8v30.034z"/></g><g transform="translate(13.65 41.74)"><use fill="#494E61" xlink:href="#i"/><path stroke="#494E61" stroke-width="3.9" d="M34.45 23.733c2.623.522 4.55 1.86 4.55 3.984 0 2.777-3.317 4.233-7.15 4.233s-7.15-1.456-7.15-4.233c0-1.32.757-2.322 1.95-3.025V-1.95h1.95a5.85 5.85 0 0 1 5.85 5.85v19.833z"/></g><g transform="translate(13.65 41.74)"><use fill="#494E61" xlink:href="#j"/><path stroke="#494E61" stroke-width="3.9" d="M30.55 27.236c1.934.584 3.25 1.684 3.25 3.416 0 2.644-3.146 3.907-6.825 3.907-3.68 0-6.825-1.263-6.825-3.907 0-1.531 1.031-2.558 2.6-3.182V-1.95h7.8v29.186z"/></g><path d="M22.75 68.599c.81.402 1.3.93 1.3 1.51 0 1.26-2.328 2.282-5.2 2.282-2.872 0-5.2-1.022-5.2-2.282 0-1.261 2.328-2.283 5.2-2.283V45.64a3.9 3.9 0 0 1 3.9-3.9V68.6z" fill="#F5ABAB"/><path d="M26.607 70.12c1.203.353 1.993.946 1.993 1.62 0 1.08-2.037 1.956-4.55 1.956s-4.55-.876-4.55-1.957c0-.887 1.372-1.635 3.252-1.876a1.32 1.32 0 0 1-.002-.076V41.739h3.9v28.048c0 .115-.015.227-.043.334z" fill="#FFBD90"/><path d="M38.35 67.362c1.537.314 2.6.988 2.6 1.768 0 1.081-2.037 1.957-4.55 1.957s-4.55-.876-4.55-1.957c0-.78 1.063-1.454 2.6-1.768V41.74h3.9v25.623z" fill="#C2EBFF"/><path d="M34.45 69.97c1.537.315 2.6.989 2.6 1.77 0 1.08-2.037 1.956-4.55 1.956s-4.55-.876-4.55-1.957c0-.78 1.063-1.454 2.6-1.768V41.739h3.9v28.232z" fill="#83E4B5"/><path d="M30.55 71.275c1.537.314 2.6.988 2.6 1.768 0 1.081-2.037 1.957-4.55 1.957s-4.55-.876-4.55-1.957c0-.78 1.063-1.454 2.6-1.768V41.74h3.9v29.536z" fill="#FFF597"/><path d="M46.15 67.192c2.565.14 4.55 1.1 4.55 2.265 0 1.26-2.328 2.282-5.2 2.282-2.872 0-5.2-1.022-5.2-2.282 0-.721.761-1.364 1.95-1.782V41.739a3.9 3.9 0 0 1 3.9 3.9v21.553z" fill="#A093D7"/><path d="M42.25 70.546c1.893.269 3.25.993 3.25 1.845 0 1.08-2.183 1.957-4.875 1.957s-4.875-.876-4.875-1.957c0-.75 1.054-1.403 2.6-1.73V41.738h3.9v28.807z" fill="#84DDFF"/><path d="M37.126 58.608c-3.086-.896-7.226-2.384-7.226-3.173 0-.79 4.14-2.278 7.226-3.174.897-3.086 2.384-7.226 3.174-7.226s2.277 4.14 3.174 7.226c3.086.896 7.226 2.384 7.226 3.174s-4.14 2.277-7.226 3.173c-.897 3.087-2.384 7.227-3.174 7.227s-2.277-4.14-3.174-7.227z" stroke="#494E61" stroke-width="3.9" fill="#FFF"/></g></svg>