<svg width="68" height="70" xmlns="http://www.w3.org/2000/svg" xmlns:xlink="http://www.w3.org/1999/xlink"><defs><path d="M32 59.65c20.91 0 30.189-9.168 30.189-29.825C62.189 9.167 52.909 0 32 0 11.09 0 1.811 9.167 1.811 29.825c0 20.657 9.28 29.824 30.189 29.824z" id="a"/><filter x="-12.9%" y="-13.1%" width="125.8%" height="126.2%" filterUnits="objectBoundingBox" id="b"><feOffset dx="6" dy="6" in="SourceAlpha" result="shadowOffsetInner1"/><feComposite in="shadowOffsetInner1" in2="SourceAlpha" operator="arithmetic" k2="-1" k3="1" result="shadowInnerInner1"/><feColorMatrix values="0 0 0 0 1 0 0 0 0 1 0 0 0 0 1 0 0 0 1 0" in="shadowInnerInner1" result="shadowMatrixInner1"/><feOffset dx="-12" dy="-3" in="SourceAlpha" result="shadowOffsetInner2"/><feComposite in="shadowOffsetInner2" in2="SourceAlpha" operator="arithmetic" k2="-1" k3="1" result="shadowInnerInner2"/><feColorMatrix values="0 0 0 0 0 0 0 0 0 0 0 0 0 0 0 0 0 0 0.05 0" in="shadowInnerInner2" result="shadowMatrixInner2"/><feMerge><feMergeNode in="shadowMatrixInner1"/><feMergeNode in="shadowMatrixInner2"/></feMerge></filter><path d="M25.358 21.474c6.81 0 7.246-4.559 7.246-10.182s-1.736-1.454-7.246-1.454c-5.509 0-7.245-4.169-7.245 1.454 0 5.623.437 10.182 7.245 10.182z" id="c"/><path d="M28.593 17.865a27.219 27.219 0 0 1-3.487 4.996c-1.382 1.58-2.718 2.853-4.01 3.817-1.291.964-2.481 1.73-3.57 2.297-1.09.566-1.904.85-2.443.85-.54 0-1.353-.279-2.443-.836-1.09-.556-2.28-1.317-3.571-2.281-1.291-.964-2.628-2.237-4.01-3.818a27.219 27.219 0 0 1-3.486-4.995c-.988-1.87-1.51-3.59-1.567-5.16-.056-1.57.264-2.833.96-3.788A6.974 6.974 0 0 1 3.628 6.74c1.078-.517 2.246-.765 3.504-.745 1.482 0 2.807.368 3.975 1.103a10.165 10.165 0 0 1 2.41 2.013c.662.766 1.094 1.387 1.296 1.864l.27.716c.067-.199.168-.467.303-.805.135-.338.545-.915 1.23-1.73a9.92 9.92 0 0 1 2.442-2.088c1.19-.735 2.56-1.103 4.11-1.103.989 0 1.926.164 2.814.492a6.665 6.665 0 0 1 2.358 1.491 6.299 6.299 0 0 1 1.533 2.371c.337.915.404 2.028.202 3.34-.202 1.313-.696 2.715-1.482 4.206z" id="e"/><filter x="-25.8%" y="-32.7%" width="151.7%" height="165.4%" filterUnits="objectBoundingBox" id="f"><feOffset dx="6" dy="6" in="SourceAlpha" result="shadowOffsetInner1"/><feComposite in="shadowOffsetInner1" in2="SourceAlpha" operator="arithmetic" k2="-1" k3="1" result="shadowInnerInner1"/><feColorMatrix values="0 0 0 0 1 0 0 0 0 1 0 0 0 0 1 0 0 0 1 0" in="shadowInnerInner1" result="shadowMatrixInner1"/><feOffset dx="-12" dy="-3" in="SourceAlpha" result="shadowOffsetInner2"/><feComposite in="shadowOffsetInner2" in2="SourceAlpha" operator="arithmetic" k2="-1" k3="1" result="shadowInnerInner2"/><feColorMatrix values="0 0 0 0 0 0 0 0 0 0 0 0 0 0 0 0 0 0 0.05 0" in="shadowInnerInner2" result="shadowMatrixInner2"/><feMerge><feMergeNode in="shadowMatrixInner1"/><feMergeNode in="shadowMatrixInner2"/></feMerge></filter><path d="M62.404 17.865a27.219 27.219 0 0 1-3.487 4.996c-1.381 1.58-2.718 2.853-4.01 3.817-1.29.964-2.481 1.73-3.57 2.297-1.09.566-1.904.85-2.443.85-.539 0-1.353-.279-2.442-.836-1.09-.556-2.28-1.317-3.572-2.281-1.291-.964-2.628-2.237-4.009-3.818a27.219 27.219 0 0 1-3.487-4.995c-.988-1.87-1.51-3.59-1.566-5.16-.057-1.57.264-2.833.96-3.788a6.974 6.974 0 0 1 2.661-2.207c1.078-.517 2.246-.765 3.504-.745 1.483 0 2.808.368 3.976 1.103a10.165 10.165 0 0 1 2.408 2.013c.663.766 1.095 1.387 1.298 1.864l.27.716c.066-.199.168-.467.302-.805.135-.338.545-.915 1.23-1.73a9.92 9.92 0 0 1 2.443-2.088c1.19-.735 2.56-1.103 4.11-1.103.988 0 1.926.164 2.813.492a6.665 6.665 0 0 1 2.358 1.491 6.299 6.299 0 0 1 1.533 2.371c.337.915.404 2.028.202 3.34-.202 1.313-.696 2.715-1.482 4.206z" id="g"/><filter x="-25.8%" y="-32.7%" width="151.7%" height="165.4%" filterUnits="objectBoundingBox" id="h"><feOffset dx="6" dy="6" in="SourceAlpha" result="shadowOffsetInner1"/><feComposite in="shadowOffsetInner1" in2="SourceAlpha" operator="arithmetic" k2="-1" k3="1" result="shadowInnerInner1"/><feColorMatrix values="0 0 0 0 1 0 0 0 0 1 0 0 0 0 1 0 0 0 1 0" in="shadowInnerInner1" result="shadowMatrixInner1"/><feOffset dx="-12" dy="-3" in="SourceAlpha" result="shadowOffsetInner2"/><feComposite in="shadowOffsetInner2" in2="SourceAlpha" operator="arithmetic" k2="-1" k3="1" result="shadowInnerInner2"/><feColorMatrix values="0 0 0 0 0 0 0 0 0 0 0 0 0 0 0 0 0 0 0.05 0" in="shadowInnerInner2" result="shadowMatrixInner2"/><feMerge><feMergeNode in="shadowMatrixInner1"/><feMergeNode in="shadowMatrixInner2"/></feMerge></filter></defs><g fill="none" fill-rule="evenodd"><path d="M34 70c20.91 0 30.189-2.842 30.189-9.246 0-6.403-9.28-9.245-30.189-9.245-20.91 0-30.189 2.842-30.189 9.245C3.811 67.158 13.091 70 34 70z" fill-opacity=".05" fill="#000"/><g transform="translate(2 2)"><use fill="#FFED9F" xlink:href="#a"/><use fill="#000" filter="url(#b)" xlink:href="#a"/><use stroke="#494E61" stroke-width="3.6" xlink:href="#a"/></g><g transform="translate(8.642 27.65)"><ellipse fill="#F5ABAB" opacity=".5" cx="6.642" cy="6.561" rx="6.642" ry="6.561"/><ellipse fill="#F5ABAB" opacity=".5" cx="44.075" cy="6.561" rx="6.642" ry="6.561"/><mask id="d" fill="#fff"><use xlink:href="#c"/></mask><use stroke="#494E61" stroke-width="6.48" fill="#494E61" xlink:href="#c"/><path d="M25.358 26.246c3.057 0 6.642-3.005 6.642-6.71 0-3.707-3.585-4.027-6.642-4.027-3.056 0-6.641.32-6.641 4.026s3.585 6.71 6.641 6.71z" fill="#ED9797" mask="url(#d)"/><path fill="#FFF" mask="url(#d)" d="M13.283 5.368h24.151v5.965H13.283z"/></g><g transform="translate(2 2)"><use fill="#F5ABAB" xlink:href="#e"/><use fill="#000" filter="url(#f)" xlink:href="#e"/><use stroke="#494E61" stroke-width="3.6" xlink:href="#e"/></g><g transform="translate(2 2)"><use fill="#F5ABAB" xlink:href="#g"/><use fill="#000" filter="url(#h)" xlink:href="#g"/><use stroke="#494E61" stroke-width="3.6" xlink:href="#g"/></g></g></svg>