<svg width="69" height="72" xmlns="http://www.w3.org/2000/svg" xmlns:xlink="http://www.w3.org/1999/xlink"><defs><path d="M33.113 61.404c21.237 0 30.66-9.437 30.66-30.702S54.35 0 33.114 0C11.877 0 2.453 9.437 2.453 30.702s9.424 30.702 30.66 30.702z" id="a"/><filter x="-12.8%" y="-12.8%" width="125.6%" height="125.5%" filterUnits="objectBoundingBox" id="b"><feOffset dx="6" dy="6" in="SourceAlpha" result="shadowOffsetInner1"/><feComposite in="shadowOffsetInner1" in2="SourceAlpha" operator="arithmetic" k2="-1" k3="1" result="shadowInnerInner1"/><feColorMatrix values="0 0 0 0 1 0 0 0 0 1 0 0 0 0 1 0 0 0 1 0" in="shadowInnerInner1" result="shadowMatrixInner1"/><feOffset dx="-12" dy="-3" in="SourceAlpha" result="shadowOffsetInner2"/><feComposite in="shadowOffsetInner2" in2="SourceAlpha" operator="arithmetic" k2="-1" k3="1" result="shadowInnerInner2"/><feColorMatrix values="0 0 0 0 0 0 0 0 0 0 0 0 0 0 0 0 0 0 0.05 0" in="shadowInnerInner2" result="shadowMatrixInner2"/><feMerge><feMergeNode in="shadowMatrixInner1"/><feMergeNode in="shadowMatrixInner2"/></feMerge></filter><path d="M7.358 4.298c6.916 0 7.359-1.493 7.359-3.335 0-1.841-1.763-.476-7.359-.476C1.763.487 0-.878 0 .963c0 1.842.443 3.335 7.358 3.335z" id="c"/><path d="M7.358 0h14.717a7.358 7.358 0 0 1 7.359 7.358v4.309c0 6.443-5.223 11.666-11.667 11.666h-6.1C5.223 23.333 0 18.11 0 11.667V7.358A7.358 7.358 0 0 1 7.358 0z" id="d"/><filter x="-26.6%" y="-33.6%" width="153.3%" height="167.2%" filterUnits="objectBoundingBox" id="e"><feOffset dx="6" dy="6" in="SourceAlpha" result="shadowOffsetInner1"/><feComposite in="shadowOffsetInner1" in2="SourceAlpha" operator="arithmetic" k2="-1" k3="1" result="shadowInnerInner1"/><feColorMatrix values="0 0 0 0 1 0 0 0 0 1 0 0 0 0 1 0 0 0 1 0" in="shadowInnerInner1" result="shadowMatrixInner1"/><feOffset dx="-12" dy="-3" in="SourceAlpha" result="shadowOffsetInner2"/><feComposite in="shadowOffsetInner2" in2="SourceAlpha" operator="arithmetic" k2="-1" k3="1" result="shadowInnerInner2"/><feColorMatrix values="0 0 0 0 0 0 0 0 0 0 0 0 0 0 0 0 0 0 0.05 0" in="shadowInnerInner2" result="shadowMatrixInner2"/><feMerge><feMergeNode in="shadowMatrixInner1"/><feMergeNode in="shadowMatrixInner2"/></feMerge></filter><path d="M42.925 0h14.717A7.358 7.358 0 0 1 65 7.358v4.309c0 6.443-5.223 11.666-11.667 11.666h-6.1c-6.444 0-11.667-5.223-11.667-11.666V7.358A7.358 7.358 0 0 1 42.925 0z" id="f"/><filter x="-26.6%" y="-33.6%" width="153.3%" height="167.2%" filterUnits="objectBoundingBox" id="g"><feOffset dx="6" dy="6" in="SourceAlpha" result="shadowOffsetInner1"/><feComposite in="shadowOffsetInner1" in2="SourceAlpha" operator="arithmetic" k2="-1" k3="1" result="shadowInnerInner1"/><feColorMatrix values="0 0 0 0 1 0 0 0 0 1 0 0 0 0 1 0 0 0 1 0" in="shadowInnerInner1" result="shadowMatrixInner1"/><feOffset dx="-12" dy="-3" in="SourceAlpha" result="shadowOffsetInner2"/><feComposite in="shadowOffsetInner2" in2="SourceAlpha" operator="arithmetic" k2="-1" k3="1" result="shadowInnerInner2"/><feColorMatrix values="0 0 0 0 0 0 0 0 0 0 0 0 0 0 0 0 0 0 0.05 0" in="shadowInnerInner2" result="shadowMatrixInner2"/><feMerge><feMergeNode in="shadowMatrixInner1"/><feMergeNode in="shadowMatrixInner2"/></feMerge></filter></defs><g fill="none" fill-rule="evenodd"><path d="M35.113 72c21.237 0 30.66-2.925 30.66-9.518 0-6.592-9.423-9.517-30.66-9.517-21.236 0-30.66 2.925-30.66 9.517 0 6.593 9.424 9.518 30.66 9.518z" fill-opacity=".05" fill="#000"/><g transform="translate(2 2)"><use fill="#FFED9F" xlink:href="#a"/><use fill="#000" filter="url(#b)" xlink:href="#a"/><use stroke="#494E61" stroke-width="3.679" xlink:href="#a"/></g><use fill="#494E61" xlink:href="#c" transform="translate(27.755 44.982)"/><g transform="translate(2 15.509)"><use fill="#82DEFD" xlink:href="#d"/><use fill="#000" filter="url(#e)" xlink:href="#d"/><use stroke="#494E61" stroke-width="3.679" xlink:href="#d"/></g><path fill="#FFF" d="M11.811 17.35h3.68L20.396 37h-3.679z"/><g transform="translate(2 15.509)"><use fill="#82DEFD" xlink:href="#f"/><use fill="#000" filter="url(#g)" xlink:href="#f"/><use stroke="#494E61" stroke-width="3.679" xlink:href="#f"/></g><path fill="#FFF" d="M47.377 17.35h3.68L55.962 37h-3.679z"/><path fill="#494E61" d="M30.821 21.035h8.585v4.912h-8.585z"/></g></svg>