<svg width="465" height="113" xmlns="http://www.w3.org/2000/svg" xmlns:xlink="http://www.w3.org/1999/xlink"><defs><path d="M40.5 98.676c28.052 0 40.5-12.43 40.5-40.44 0-28.012-12.448-40.442-40.5-40.442S0 30.224 0 58.235c0 28.011 12.448 40.441 40.5 40.441z" id="a"/><filter x="-12.9%" y="-12.9%" width="125.7%" height="125.8%" filterUnits="objectBoundingBox" id="b"><feOffset dx="8" dy="8" in="SourceAlpha" result="shadowOffsetInner1"/><feComposite in="shadowOffsetInner1" in2="SourceAlpha" operator="arithmetic" k2="-1" k3="1" result="shadowInnerInner1"/><feColorMatrix values="0 0 0 0 1 0 0 0 0 1 0 0 0 0 1 0 0 0 1 0" in="shadowInnerInner1" result="shadowMatrixInner1"/><feOffset dx="-16" dy="-4" in="SourceAlpha" result="shadowOffsetInner2"/><feComposite in="shadowOffsetInner2" in2="SourceAlpha" operator="arithmetic" k2="-1" k3="1" result="shadowInnerInner2"/><feColorMatrix values="0 0 0 0 0 0 0 0 0 0 0 0 0 0 0 0 0 0 0.05 0" in="shadowInnerInner2" result="shadowMatrixInner2"/><feMerge><feMergeNode in="shadowMatrixInner1"/><feMergeNode in="shadowMatrixInner2"/></feMerge></filter><path d="M53.055 24.265c1.83 0 6.075-4.24 6.075-6.066 0-1.828-4.245-6.067-6.075-6.067s-6.075 4.24-6.075 6.067 4.245 6.066 6.075 6.066z" id="c"/><filter x="-85.8%" y="-85.9%" width="271.5%" height="271.8%" filterUnits="objectBoundingBox" id="d"><feOffset dx="8" dy="8" in="SourceAlpha" result="shadowOffsetInner1"/><feComposite in="shadowOffsetInner1" in2="SourceAlpha" operator="arithmetic" k2="-1" k3="1" result="shadowInnerInner1"/><feColorMatrix values="0 0 0 0 1 0 0 0 0 1 0 0 0 0 1 0 0 0 1 0" in="shadowInnerInner1" result="shadowMatrixInner1"/><feOffset dx="-16" dy="-4" in="SourceAlpha" result="shadowOffsetInner2"/><feComposite in="shadowOffsetInner2" in2="SourceAlpha" operator="arithmetic" k2="-1" k3="1" result="shadowInnerInner2"/><feColorMatrix values="0 0 0 0 0 0 0 0 0 0 0 0 0 0 0 0 0 0 0.05 0" in="shadowInnerInner2" result="shadowMatrixInner2"/><feMerge><feMergeNode in="shadowMatrixInner1"/><feMergeNode in="shadowMatrixInner2"/></feMerge></filter><path d="M41.31 9.706c1.464 0 4.86-3.391 4.86-4.853C46.17 3.39 42.774 0 41.31 0c-1.464 0-4.86 3.391-4.86 4.853 0 1.462 3.396 4.853 4.86 4.853z" id="e"/><filter x="-107.2%" y="-107.3%" width="314.4%" height="314.7%" filterUnits="objectBoundingBox" id="f"><feOffset dx="8" dy="8" in="SourceAlpha" result="shadowOffsetInner1"/><feComposite in="shadowOffsetInner1" in2="SourceAlpha" operator="arithmetic" k2="-1" k3="1" result="shadowInnerInner1"/><feColorMatrix values="0 0 0 0 1 0 0 0 0 1 0 0 0 0 1 0 0 0 1 0" in="shadowInnerInner1" result="shadowMatrixInner1"/><feOffset dx="-16" dy="-4" in="SourceAlpha" result="shadowOffsetInner2"/><feComposite in="shadowOffsetInner2" in2="SourceAlpha" operator="arithmetic" k2="-1" k3="1" result="shadowInnerInner2"/><feColorMatrix values="0 0 0 0 0 0 0 0 0 0 0 0 0 0 0 0 0 0 0.05 0" in="shadowInnerInner2" result="shadowMatrixInner2"/><feMerge><feMergeNode in="shadowMatrixInner1"/><feMergeNode in="shadowMatrixInner2"/></feMerge></filter><path d="M18.63 12.843c14.037 0 18.63 1.265 18.63-5.11C37.26 1.36 24.822 0 18.63 0 12.438 0 0 1.36 0 7.734s4.593 5.11 18.63 5.11z" id="g"/></defs><g fill="none" fill-rule="evenodd"><path d="M169.232 55.769l6.284-3.904c.783-.423 1.296-.862 1.54-1.317.243-.455.306-.868.19-1.238-.117-.37-.392-.677-.825-.92a2.964 2.964 0 0 0-1.476-.366V36.25h25.613v11.774c-1.355 0-2.54.143-3.555.429-1.016.286-2.148.799-3.396 1.54l-6.57 3.871 10.664 13.806c.381.55.757 1.042 1.127 1.476.37.434.772.804 1.206 1.111.434.307.942.545 1.523.714.582.17 1.307.254 2.174.254V83h-28.786V71.225c.91 0 1.57-.127 1.983-.38.413-.255.672-.567.778-.937a1.71 1.71 0 0 0-.032-1.08c-.127-.348-.254-.607-.38-.777l-4.57-5.713-3.492 2.127v3.586c0 .572.021 1.048.063 1.428.043.381.18.704.413.969.233.264.577.46 1.032.587.454.127 1.073.19 1.856.19V83h-27.295V71.225c1.862 0 3.195-.249 4-.746.803-.497 1.205-1.433 1.205-2.809V51.61c0-1.396-.402-2.343-1.206-2.84-.804-.497-2.137-.746-3.999-.746V36.25h27.295v11.774c-.783 0-1.402.064-1.856.19-.455.128-.8.324-1.032.588a1.73 1.73 0 0 0-.413.984c-.042.391-.063.873-.063 1.444v4.539zm73.03 10.251L236.232 83h-14.124l-12.22-31.39c-.253-.655-.486-1.2-.698-1.634a3.312 3.312 0 0 0-.872-1.11c-.37-.307-.841-.524-1.413-.651-.571-.127-1.312-.19-2.221-.19V36.25h26.533v11.774c-1.122 0-1.92.27-2.396.81-.477.54-.545 1.338-.207 2.396l4.634 15.393h.254l4.158-13.14-.667-1.872c-.465-1.27-.904-2.185-1.317-2.746-.413-.56-1.116-.84-2.11-.84V36.25h25.136v11.774c-1.587 0-2.565.27-2.936.81-.37.54-.386 1.338-.047 2.396l3.967 15.393h.254l4.76-15.393c.657-2.137-.56-3.206-3.65-3.206V36.25h18.472v11.774c-.91 0-1.66.064-2.253.19-.592.128-1.058.334-1.396.62a3.352 3.352 0 0 0-.842 1.11c-.222.455-.46 1.01-.714 1.667L262.67 83h-14.091l-6.316-16.98zm68.84 5.205c.868 0 1.592-.074 2.174-.222.582-.148 1.047-.429 1.397-.841.349-.413.587-.979.714-1.698.127-.72.19-1.64.19-2.761h11.109V83h-45.228V71.225c1.862 0 3.195-.249 4-.746.804-.497 1.206-1.433 1.206-2.809V51.61c0-1.396-.402-2.343-1.206-2.84-.805-.497-2.138-.746-4-.746V36.25h45.228v17.297h-11.109c0-1.122-.063-2.042-.19-2.761-.127-.72-.365-1.28-.714-1.682-.35-.403-.815-.683-1.397-.842-.582-.158-1.306-.238-2.174-.238h-5.713v8.443h10.125v5.617h-10.125v9.141h5.713zm47.83 0c.867 0 1.592-.074 2.174-.222.582-.148 1.047-.429 1.396-.841.35-.413.587-.979.714-1.698.127-.72.19-1.64.19-2.761h11.11V83h-45.228V71.225c1.862 0 3.195-.249 4-.746.803-.497 1.205-1.433 1.205-2.809V51.61c0-1.396-.402-2.343-1.206-2.84-.804-.497-2.137-.746-3.999-.746V36.25h45.227v17.297h-11.108c0-1.122-.064-2.042-.19-2.761-.128-.72-.366-1.28-.715-1.682-.349-.403-.814-.683-1.396-.842-.582-.158-1.307-.238-2.174-.238h-5.713v8.443h10.124v5.617H353.22v9.141h5.713zm74.997-34.975v11.774c-1.862 0-3.084.307-3.666.92-.581.614-.872 1.503-.872 2.667V83h-19.075l-16.567-25.93v10.98c0 1.376.402 2.248 1.206 2.619.804.37 2.137.555 3.999.555V83h-21.836V71.225c1.862 0 3.195-.249 3.999-.746.804-.497 1.206-1.433 1.206-2.809V51.61c0-1.396-.402-2.343-1.206-2.84-.804-.497-2.137-.746-4-.746V36.25h24.947l15.87 24.85v-9.49c0-1.396-.292-2.343-.874-2.84-.582-.497-1.803-.746-3.665-.746V36.25h20.534zM435.865 83V71.225c1.862 0 3.195-.249 4-.746.803-.497 1.205-1.433 1.205-2.809V51.61c0-1.396-.402-2.343-1.206-2.84-.804-.497-2.137-.746-3.999-.746V36.25h29.104v11.774c-1.862 0-3.19.249-3.983.746-.793.497-1.19 1.444-1.19 2.84v16.06c0 1.376.397 2.312 1.19 2.81.794.496 2.121.745 3.983.745V83h-29.104z" fill="#494E61"/><g transform="translate(3 3)"><path d="M40.5 110c28.052 0 40.5-3.853 40.5-12.537 0-8.683-12.448-12.537-40.5-12.537S0 88.78 0 97.463C0 106.147 12.448 110 40.5 110z" fill-opacity=".05" fill="#000"/><use fill="#F5ABAB" xlink:href="#a"/><use fill="#000" filter="url(#b)" xlink:href="#a"/><use stroke="#494E61" stroke-width="4.838" xlink:href="#a"/><use fill="#F5ABAB" xlink:href="#c"/><use fill="#000" filter="url(#d)" xlink:href="#c"/><use stroke="#494E61" stroke-width="4.838" xlink:href="#c"/><use fill="#F5ABAB" xlink:href="#e"/><use fill="#000" filter="url(#f)" xlink:href="#e"/><use stroke="#494E61" stroke-width="4.838" xlink:href="#e"/><path d="M66.42 42.868c0-8.404.133-.81-17.82-.81m-16.2.001c-17.953 0-17.82-7.595-17.82.809" stroke="#494E61" stroke-linecap="round" stroke-width="4.838"/><ellipse fill="#494E61" cx="24.3" cy="50.956" rx="4.86" ry="4.853"/><ellipse fill="#494E61" cx="56.7" cy="50.956" rx="4.86" ry="4.853"/><g transform="translate(21.87 64.706)"><mask id="h" fill="#fff"><use xlink:href="#g"/></mask><use stroke="#494E61" stroke-width="8.709" fill="#494E61" xlink:href="#g"/><path fill="#FFF" mask="url(#h)" d="M-8.91-3.235h55.08v8.088H-8.91zm0 12.941h55.08v8.088H-8.91z"/></g></g></g></svg>