<svg width="138" height="40" xmlns="http://www.w3.org/2000/svg" xmlns:xlink="http://www.w3.org/1999/xlink"><defs><path d="M14.5 34.686c10.043 0 14.5-4.37 14.5-14.215 0-9.847-4.457-14.216-14.5-14.216S0 10.625 0 20.47s4.457 14.215 14.5 14.215z" id="a"/><filter x="-13.7%" y="-14%" width="127.4%" height="127.9%" filterUnits="objectBoundingBox" id="b"><feOffset dx="3" dy="3" in="SourceAlpha" result="shadowOffsetInner1"/><feComposite in="shadowOffsetInner1" in2="SourceAlpha" operator="arithmetic" k2="-1" k3="1" result="shadowInnerInner1"/><feColorMatrix values="0 0 0 0 1 0 0 0 0 1 0 0 0 0 1 0 0 0 1 0" in="shadowInnerInner1" result="shadowMatrixInner1"/><feOffset dx="-6" dy="-2" in="SourceAlpha" result="shadowOffsetInner2"/><feComposite in="shadowOffsetInner2" in2="SourceAlpha" operator="arithmetic" k2="-1" k3="1" result="shadowInnerInner2"/><feColorMatrix values="0 0 0 0 0 0 0 0 0 0 0 0 0 0 0 0 0 0 0.05 0" in="shadowInnerInner2" result="shadowMatrixInner2"/><feMerge><feMergeNode in="shadowMatrixInner1"/><feMergeNode in="shadowMatrixInner2"/></feMerge></filter><path d="M18.995 8.53c.655 0 2.175-1.49 2.175-2.133 0-.642-1.52-2.132-2.175-2.132-.655 0-2.175 1.49-2.175 2.132 0 .642 1.52 2.132 2.175 2.132z" id="c"/><filter x="-91.2%" y="-93%" width="282.4%" height="286.1%" filterUnits="objectBoundingBox" id="d"><feOffset dx="3" dy="3" in="SourceAlpha" result="shadowOffsetInner1"/><feComposite in="shadowOffsetInner1" in2="SourceAlpha" operator="arithmetic" k2="-1" k3="1" result="shadowInnerInner1"/><feColorMatrix values="0 0 0 0 1 0 0 0 0 1 0 0 0 0 1 0 0 0 1 0" in="shadowInnerInner1" result="shadowMatrixInner1"/><feOffset dx="-6" dy="-2" in="SourceAlpha" result="shadowOffsetInner2"/><feComposite in="shadowOffsetInner2" in2="SourceAlpha" operator="arithmetic" k2="-1" k3="1" result="shadowInnerInner2"/><feColorMatrix values="0 0 0 0 0 0 0 0 0 0 0 0 0 0 0 0 0 0 0.05 0" in="shadowInnerInner2" result="shadowMatrixInner2"/><feMerge><feMergeNode in="shadowMatrixInner1"/><feMergeNode in="shadowMatrixInner2"/></feMerge></filter><path d="M14.79 3.412c.524 0 1.74-1.192 1.74-1.706S15.314 0 14.79 0s-1.74 1.192-1.74 1.706 1.216 1.706 1.74 1.706z" id="e"/><filter x="-114%" y="-116.3%" width="328%" height="332.6%" filterUnits="objectBoundingBox" id="f"><feOffset dx="3" dy="3" in="SourceAlpha" result="shadowOffsetInner1"/><feComposite in="shadowOffsetInner1" in2="SourceAlpha" operator="arithmetic" k2="-1" k3="1" result="shadowInnerInner1"/><feColorMatrix values="0 0 0 0 1 0 0 0 0 1 0 0 0 0 1 0 0 0 1 0" in="shadowInnerInner1" result="shadowMatrixInner1"/><feOffset dx="-6" dy="-2" in="SourceAlpha" result="shadowOffsetInner2"/><feComposite in="shadowOffsetInner2" in2="SourceAlpha" operator="arithmetic" k2="-1" k3="1" result="shadowInnerInner2"/><feColorMatrix values="0 0 0 0 0 0 0 0 0 0 0 0 0 0 0 0 0 0 0.05 0" in="shadowInnerInner2" result="shadowMatrixInner2"/><feMerge><feMergeNode in="shadowMatrixInner1"/><feMergeNode in="shadowMatrixInner2"/></feMerge></filter><path d="M6.67 4.515c5.025 0 6.67.444 6.67-1.796S8.887 0 6.67 0C4.453 0 0 .478 0 2.719c0 2.24 1.645 1.796 6.67 1.796z" id="g"/></defs><g fill="none" fill-rule="evenodd"><path d="M51.375 21.04l1.837-1.141c.23-.124.38-.252.45-.385.071-.133.09-.254.056-.362a.48.48 0 0 0-.241-.269.866.866 0 0 0-.432-.107v-3.442h7.487v3.442c-.396 0-.742.042-1.039.126a4.246 4.246 0 0 0-.993.45l-1.92 1.131 3.117 4.036c.112.16.221.305.33.431.108.127.225.235.352.325.127.09.275.16.445.209.17.05.382.074.636.074V29h-8.415v-3.442c.266 0 .46-.037.58-.111a.48.48 0 0 0 .228-.274.5.5 0 0 0-.01-.315.91.91 0 0 0-.111-.228l-1.336-1.67-1.02.622v1.048c0 .167.006.307.018.418a.5.5 0 0 0 .12.283.607.607 0 0 0 .302.171 2.1 2.1 0 0 0 .543.056V29H44.38v-3.442c.545 0 .934-.073 1.17-.218.234-.145.352-.419.352-.821v-4.694c0-.408-.118-.685-.353-.83-.235-.146-.624-.219-1.169-.219v-3.442h7.979v3.442a2.1 2.1 0 0 0-.543.056.607.607 0 0 0-.301.172.505.505 0 0 0-.121.287 4.026 4.026 0 0 0-.019.422v1.327zm21.348 2.997L70.96 29h-4.128l-3.572-9.175a6.312 6.312 0 0 0-.204-.478.968.968 0 0 0-.255-.325.963.963 0 0 0-.413-.19 3.089 3.089 0 0 0-.65-.056v-3.442h7.756v3.442c-.328 0-.561.08-.7.237-.14.158-.16.391-.06.7l1.354 4.5h.074l1.215-3.84-.194-.548c-.136-.371-.265-.639-.385-.803-.121-.164-.327-.246-.617-.246v-3.442h7.347v3.442c-.464 0-.75.08-.858.237-.108.158-.113.391-.014.7l1.16 4.5h.074l1.392-4.5c.191-.624-.164-.937-1.067-.937v-3.442h5.4v3.442c-.267 0-.486.019-.66.056a.924.924 0 0 0-.408.18.98.98 0 0 0-.245.326 6.363 6.363 0 0 0-.21.487L78.689 29h-4.12l-1.845-4.963zm20.122 1.521c.254 0 .466-.022.636-.065a.765.765 0 0 0 .408-.246 1.03 1.03 0 0 0 .209-.496c.037-.21.055-.48.055-.807H97.4V29H84.18v-3.442c.544 0 .934-.073 1.17-.218.234-.145.352-.419.352-.821v-4.694c0-.408-.118-.685-.353-.83-.235-.146-.625-.219-1.169-.219v-3.442H97.4v5.057h-3.247c0-.328-.018-.597-.055-.808a1.002 1.002 0 0 0-.21-.491.805.805 0 0 0-.407-.246 2.458 2.458 0 0 0-.636-.07h-1.67v2.468h2.96v1.642h-2.96v2.672h1.67zm13.981 0c.254 0 .466-.022.636-.065a.765.765 0 0 0 .408-.246 1.03 1.03 0 0 0 .209-.496c.037-.21.055-.48.055-.807h3.247V29h-13.22v-3.442c.544 0 .934-.073 1.17-.218.234-.145.352-.419.352-.821v-4.694c0-.408-.118-.685-.353-.83-.235-.146-.625-.219-1.169-.219v-3.442h13.22v5.057h-3.247c0-.328-.018-.597-.055-.808a1.002 1.002 0 0 0-.21-.491.805.805 0 0 0-.407-.246 2.458 2.458 0 0 0-.636-.07h-1.67v2.468h2.96v1.642h-2.96v2.672h1.67zm21.923-10.224v3.442c-.545 0-.902.09-1.072.27-.17.179-.255.439-.255.779V29h-5.576l-4.843-7.58v3.21c0 .402.118.658.353.766.235.108.625.162 1.169.162V29h-6.383v-3.442c.544 0 .934-.073 1.169-.218.235-.145.353-.419.353-.821v-4.694c0-.408-.118-.685-.353-.83-.235-.146-.625-.219-1.169-.219v-3.442h7.292l4.639 7.265v-2.774c0-.408-.085-.685-.255-.83-.17-.146-.528-.219-1.072-.219v-3.442h6.003zM129.314 29v-3.442c.545 0 .934-.073 1.17-.218.234-.145.352-.419.352-.821v-4.694c0-.408-.118-.685-.353-.83-.235-.146-.624-.219-1.169-.219v-3.442h8.508v3.442c-.544 0-.933.073-1.165.218-.231.146-.347.423-.347.83v4.695c0 .402.116.676.347.821.232.145.62.218 1.165.218V29h-8.508z" fill="#FFF"/><g transform="translate(1 1)"><path d="M14.5 38.667c10.043 0 14.5-1.355 14.5-4.407 0-3.053-4.457-4.407-14.5-4.407S0 31.207 0 34.26c0 3.052 4.457 4.407 14.5 4.407z" fill-opacity=".05" fill="#000"/><use fill="#F5ABAB" xlink:href="#a"/><use fill="#000" filter="url(#b)" xlink:href="#a"/><use stroke="#494E61" stroke-width="1.935" xlink:href="#a"/><use fill="#F5ABAB" xlink:href="#c"/><use fill="#000" filter="url(#d)" xlink:href="#c"/><use stroke="#494E61" stroke-width="1.935" xlink:href="#c"/><use fill="#F5ABAB" xlink:href="#e"/><use fill="#000" filter="url(#f)" xlink:href="#e"/><use stroke="#494E61" stroke-width="1.935" xlink:href="#e"/><path d="M23.78 15.069c0-2.954.048-.285-6.38-.285m-5.8 0c-6.428 0-6.38-2.67-6.38.285" stroke="#494E61" stroke-linecap="round" stroke-width="1.935"/><ellipse fill="#494E61" cx="8.7" cy="17.912" rx="1.74" ry="1.706"/><ellipse fill="#494E61" cx="20.3" cy="17.912" rx="1.74" ry="1.706"/><g transform="translate(7.83 22.745)"><mask id="h" fill="#fff"><use xlink:href="#g"/></mask><use stroke="#494E61" stroke-width="3.484" fill="#494E61" xlink:href="#g"/><path fill="#FFF" mask="url(#h)" d="M-3.19-1.137h19.72v2.843H-3.19zm0 4.549h19.72v2.843H-3.19z"/></g></g></g></svg>